<svg version="1" xmlns="http://www.w3.org/2000/svg" width="682.667" height="682.667" viewBox="0 0 512.000000 512.000000"><path d="M239.6 12.1c-34.1 2.6-65.2 14.9-81 32-8.1 8.7-11.8 16.5-13.6 28.2-.8 5.2-1.4 6.4-5.7 10.5-2.7 2.6-6 6.9-7.3 9.7l-2.5 5-.3 40.1-.3 40.1 5.3 3.9c7.5 5.6 9.5 10.1 10.5 24.4l.8 11.5h14l.3-7c.3-9.6 1-10.9 3-6 7.9 20.1 28.4 31.9 48.7 28 17.3-3.3 30.1-14.9 34.7-31.3 2.2-8.1 2.3-14.9.2-22.2-2.6-8.9-2.5-9.2 2.6-10.7 3.4-1 5.9-1.1 10.4-.4 8.4 1.5 8.7 2 6.5 9.2-4.9 15.8-.4 32.4 12 44.2 6.6 6.3 13.2 9.7 22.9 11.7 17.6 3.6 38.7-7.6 46.9-25l3.1-6.5.6 4.5c.3 2.5.7 6.1.8 8l.3 3.5 6.3.3c3.6.2 6.9-.2 7.7-.8.9-.7 1.4-4.7 1.6-12.8.5-13.7 1.6-16.5 9.5-22.4l4.9-3.8.5-32.7.5-32.8 7.5-3.9c10.3-5.3 20.6-11.3 22.4-13.2 1.8-1.7 1.6-3.2-1.7-12.9-6.4-19.4-23.7-37-48.2-49.2-35.3-17.7-77-24.8-123.9-21.2zm-68.7 96.7c18.3 10.2 32.5 14.7 60.6 19.4 11.2 1.8 16.9 2.1 40.5 2.1 30.6-.1 43-1.1 68.3-5.8 8.5-1.6 10-1.7 10.8-.4 1 1.6 1 48.2 0 51.9-.6 2.2-.9 1.9-2.9-2.9-10.8-26.1-42.5-35.3-65.8-19-5.9 4.2-5.9 4.2-10.4 2.9-12.4-3.5-23.3-3.3-32.4.5-3.8 1.6-3.9 1.6-7.7-1.5-22-17.6-54.5-10.4-67.2 14.9-1.9 3.8-3.8 6.7-4.1 6.4-1.2-1.2-.7-73.3.5-73.3.6 0 5 2.2 9.8 4.8zm46 55.8c12.8 6.4 18.7 24.4 12.2 37.1-3.2 6.4-6.8 10-12.8 13-13.9 6.8-31.2.8-37.7-13.2-6.7-14.1 0-31.5 14.4-37.8 2-.9 6.7-1.6 11.1-1.6 6.2-.1 8.4.4 12.8 2.5zm101.5-1.1c5.6 2.4 12.1 8.9 14.7 14.8 8.2 18.6-5 39.1-25.2 39.1-10.8 0-21.8-6.7-26-15.9-2.9-6.3-2.6-17.7.7-24.3 2.9-5.8 7.9-10.6 13.8-13.3 5.2-2.3 16.8-2.5 22-.4zM146 367.4c-6.3 2.4-20.7 7.9-32 12.3-11.3 4.5-28.4 11.1-38 14.8-9.6 3.7-19.6 7.8-22.1 9.1-6.8 3.4-15.1 11.5-18.6 18.1C32.8 426.4 2 509.5 2 511.4c0 .3 56.7.6 126.1.6h126.1l-2-3.3c-1.1-1.7-7.8-12.6-15.1-24-7.2-11.4-13.1-21.4-13.1-22.2 0-.8 1.6-2.2 3.5-3 1.9-.8 5-2.2 6.9-3 3.1-1.3 3.5-1.3 6.7 1.1 10.1 7.5 20 7.2 31.4-1 1.8-1.3 2.7-1.2 8.5 1.4 3.6 1.6 6.6 3.5 6.8 4.3.2.8-5.6 10.8-12.9 22.3-7.2 11.5-14 22.4-15.1 24.1l-2 3.3h126.1c69.4 0 126.1-.3 126.1-.6 0-1.9-30.8-85-33.3-89.7-3.4-6.6-11.8-14.7-18.6-18.1-2.5-1.3-15.4-6.5-28.6-11.6-13.2-5.1-31.2-12.1-40-15.5-23.2-9.2-35.7-13.6-37.1-13.1-.6.2-6.4 8.9-12.9 19.3-6.5 10.3-12.4 19.4-13 20.1-1.3 1.5-50.3 24.2-52.1 24.2-.6 0-1.7-.7-2.5-1.6-2-2.4-8.5-5.4-13.2-6-6.5-.9-11.7.9-19.8 6.8-1.4.9-6-.8-26.5-10.2-13.7-6.3-25.3-11.7-25.9-12.2-.5-.5-6.6-9.7-13.5-20.6-6.9-10.8-13.2-19.8-14-19.9-.8-.1-6.7 1.7-13 4.1z"/></svg>