<svg version="1" xmlns="http://www.w3.org/2000/svg" width="682.667" height="682.667" viewBox="0 0 512.000000 512.000000"><path d="M252 9.3c-.3.2-4.3.7-9 1.1-28.7 2.1-53.3 9.3-72.1 21.2-6 3.8-16.3 13.8-19.8 19.3-3.8 6-6.8 14.2-7.6 21.2-.5 5-1 5.9-5 9.2-2.8 2.4-5.6 6.1-7.7 10.4l-3.3 6.8-.3 39.2c-.2 23 .1 40 .6 40.9.7 1.3.1 2.8-2.4 6.1-4.1 5.3-4.8 9.1-4.1 20.2 1.7 26.7 11 46.4 23.8 50.6 6 2 4.6-.7 20.3 38.7L176 321l-.2 16.1-.3 16.1-5 1.7c-2.7 1-6.6 2.8-8.5 3.9-1.9 1.1-8 3.6-13.5 5.5-5.6 1.9-11.9 4.4-14.1 5.5-2.2 1.1-11.6 5-20.9 8.5-64.8 24.8-67.9 26.3-75.8 36.7-4.3 5.7-6.3 10.1-12.9 28.4-6.5 18.2-22.6 62.3-24.4 67-.6 1.5 22.7 1.6 255.6 1.6s256.2-.1 255.6-1.6c-1.8-4.7-17.9-48.8-24.4-67-6.6-18.3-8.6-22.7-12.9-28.4-7.9-10.4-11-11.9-75.8-36.7-9.3-3.5-18.7-7.4-20.9-8.5-3.7-1.9-24.5-9.5-37.1-13.5l-5-1.7.3-17 .3-17 11.9-29.8c6.6-16.4 12.4-30.7 12.9-31.7.6-1 3-2.3 5.5-3 5.8-1.4 12.6-8.4 16.7-16.9 4.8-10.3 7-20.1 7.6-35.2l.5-13.5-3.3-5-3.4-5 .3-33.8.3-33.7 9.9-4.9c5.4-2.8 12.4-6.6 15.4-8.5 6.5-4.2 6.8-5.5 3.5-15.7-4.2-12.6-11.6-23.8-22.7-34C373.9 34.1 341 19.3 311.4 14c-17.6-3.1-57.8-6.3-59.4-4.7z"/></svg>